<?xml version="1.0" encoding="utf-8"?>
<!-- Generator: Adobe Illustrator 16.0.3, SVG Export Plug-In . SVG Version: 6.00 Build 0)  -->
<!DOCTYPE svg PUBLIC "-//W3C//DTD SVG 1.1//EN" "http://www.w3.org/Graphics/SVG/1.1/DTD/svg11.dtd">
<svg version="1.1" id="Layer_1" xmlns="http://www.w3.org/2000/svg" xmlns:xlink="http://www.w3.org/1999/xlink" x="0px" y="0px"
	 width="1126.708px" height="310.91px" viewBox="0 0 1126.708 310.91" enable-background="new 0 0 1126.708 310.91"
	 xml:space="preserve">
<g>
	<g>
		<path fill="#E9280B" d="M29.655,27.324H0V0.203h91.879v27.121H62.236v78.695H29.655V27.324z"/>
		<path fill="#E9280B" d="M96.943,0.203h89.192v27.121h-56.59V40.51h56.59v25.203h-56.59V78.9h56.605v27.12H96.943V0.203z"/>
		<path fill="#E9280B" d="M191.622,0.203h53.5c35.266,0,47.729,26.084,47.729,52.753c0,32.466-17.191,53.063-54.096,53.063h-47.134
			L191.622,0.203L191.622,0.203z M224.222,78.9h12.75c20.309,0,23.278-16.456,23.278-26.396c0-6.656-2.086-25.179-25.652-25.179
			h-10.376V78.9L224.222,78.9z"/>
	</g>
	<g>
		<g>
			<path fill="#E9280B" d="M339.698,65.243l-9.945-16.492l-9.698,16.492h-23.887l22.677-33.346L297.009,0h23.896l8.849,15.767
				L338.855,0h23.888l-21.829,31.896l22.677,33.346L339.698,65.243L339.698,65.243z"/>
		</g>
	</g>
</g>
<text transform="matrix(1 0 0 1 0.9678 238.5361)" font-family="'Helvetica'" font-size="146.9047">Joven@CNBA</text>
<text transform="matrix(1 0 0 1 2.853 300.8818)" fill="#E9280B" font-family="'HelveticaNeueLTStd-Bd'" font-size="46">x</text>
<text transform="matrix(1 0 0 1 27.5542 300.8818)" font-family="'HelveticaNeueLTStd-Bd'" font-size="46"> = evento TED organizado de forma independiente</text>
</svg>
