<?xml version="1.0" encoding="utf-8"?>
<!-- Generator: Adobe Illustrator 16.0.3, SVG Export Plug-In . SVG Version: 6.00 Build 0)  -->
<!DOCTYPE svg PUBLIC "-//W3C//DTD SVG 1.1//EN" "http://www.w3.org/Graphics/SVG/1.1/DTD/svg11.dtd">
<svg version="1.1" id="Layer_1" xmlns="http://www.w3.org/2000/svg" xmlns:xlink="http://www.w3.org/1999/xlink" x="0px" y="0px"
	 width="1323.414px" height="196.793px" viewBox="0 0 1323.414 196.793" enable-background="new 0 0 1323.414 196.793"
	 xml:space="preserve">
<g>
	<g>
		<path fill="#E9280B" d="M29.655,47.427H0V20.306h91.879v27.121H62.236v78.695H29.655V47.427z"/>
		<path fill="#E9280B" d="M96.943,20.306h89.192v27.121h-56.59v13.186h56.59v25.203h-56.59v13.187h56.605v27.121H96.943V20.306z"/>
		<path fill="#E9280B" d="M191.622,20.306h53.5c35.266,0,47.729,26.084,47.729,52.753c0,32.466-17.191,53.062-54.096,53.062h-47.134
			L191.622,20.306L191.622,20.306z M224.222,99.002h12.75c20.309,0,23.278-16.457,23.278-26.396c0-6.656-2.086-25.179-25.652-25.179
			h-10.376V99.002L224.222,99.002z"/>
	</g>
	<g>
		<g>
			<path fill="#E9280B" d="M339.698,85.345l-9.945-16.492l-9.698,16.492h-23.887l22.677-33.346L297.01,20.103h23.896l8.849,15.767
				l9.104-15.767h23.888l-21.829,31.896l22.677,33.346H339.698z"/>
		</g>
	</g>
</g>
<text transform="matrix(1 0 0 1 375.8071 126.1392)" font-family="'Helvetica'" font-size="146.9047">Joven@CNBA</text>
<text transform="matrix(1 0 0 1 2.3257 184.3481)" fill="#E9280B" font-family="'HelveticaNeueLTStd-Bd'" font-size="46">x</text>
<text transform="matrix(1 0 0 1 27.0269 184.3481)" font-family="'HelveticaNeueLTStd-Bd'" font-size="46"> = evento TED organizado de forma independiente</text>
</svg>
