<svg xmlns="http://www.w3.org/2000/svg" 
	 width="200" height="27.468" viewBox="172.698 38.928 978.01 134.416">
<g>
	<g>
		<path fill="#E9280B" d="M194.612,61.42h-21.914V40.762h67.9V61.42h-21.906v59.939h-24.08V61.42z"/>
		<path fill="#E9280B" d="M244.339,40.762h65.915V61.42h-41.821v10.043h41.821v19.195h-41.821v10.045h41.832v20.656h-65.926V40.762z
			"/>
		<path fill="#E9280B" d="M314.309,40.762h39.537c26.063,0,35.272,19.867,35.272,40.182c0,24.727-12.705,40.416-39.978,40.416
			h-34.832V40.762L314.309,40.762z M338.4,100.703h9.423c15.008,0,17.203-12.536,17.203-20.107c0-5.068-1.542-19.176-18.958-19.176
			H338.4V100.703L338.4,100.703z"/>
	</g>
	<g>
		<g>
			<path fill="#E9280B" d="M423.738,90.3l-7.35-12.562L409.221,90.3h-17.652l16.759-25.399l-16.137-24.293h17.661l6.538,12.009
				l6.729-12.009h17.654L424.64,64.901L441.398,90.3H423.738z"/>
		</g>
	</g>
</g>
<g enable-background="new    ">
	<path d="M496.965,97.44c0,6.777-0.973,12.039-2.918,15.792c-3.609,6.848-10.473,10.272-20.592,10.272
		c-5.837,0-10.826-1.63-14.967-4.892c-4.14-3.26-6.208-9.062-6.208-17.401v-5.738h9.913v5.738c0,4.37,0.947,7.659,2.842,9.861
		c1.895,2.204,4.844,3.304,8.846,3.304c5.631,0,9.313-1.982,11.05-5.954c1.062-2.439,1.594-7.047,1.594-13.823V41.113h10.442V97.44z
		"/>
	<path d="M552.838,68.697c5.017,5.023,7.527,12.41,7.527,22.163c0,9.424-2.212,17.213-6.634,23.363
		c-4.42,6.152-11.281,9.228-20.581,9.228c-7.756,0-13.914-2.721-18.477-8.162c-4.562-5.44-6.843-12.748-6.843-21.916
		c0-9.826,2.405-17.65,7.212-23.474c4.808-5.822,11.265-8.733,19.371-8.733C541.679,61.165,547.82,63.676,552.838,68.697z
		 M546.915,107.587c2.322-4.929,3.484-10.414,3.484-16.453c0-5.458-0.839-9.896-2.516-13.316c-2.655-5.384-7.232-8.075-13.732-8.075
		c-5.767,0-9.959,2.291-12.581,6.875c-2.619,4.584-3.93,10.112-3.93,16.588c0,6.224,1.311,11.406,3.93,15.554
		c2.622,4.147,6.78,6.22,12.477,6.22C540.301,114.979,544.59,112.516,546.915,107.587z"/>
	<path d="M576.771,62.858l15.162,47.642l15.797-47.642h10.443L596.8,121.372h-10.168l-20.939-58.514H576.771z"/>
	<path d="M661.431,64.469c3.755,1.95,6.621,4.473,8.586,7.568c1.896,2.95,3.162,6.393,3.794,10.326
		c0.562,2.696,0.845,6.994,0.845,12.895h-41.297c0.177,5.952,1.528,10.728,4.051,14.328c2.524,3.596,6.435,5.395,11.729,5.395
		c4.944,0,8.888-1.702,11.834-5.104c1.649-1.975,2.816-4.264,3.503-6.859h9.385c-0.25,2.146-1.07,4.543-2.467,7.183
		c-1.397,2.642-2.954,4.798-4.673,6.474c-2.876,2.915-6.436,4.883-10.679,5.9c-2.28,0.585-4.857,0.877-7.732,0.877
		c-7.025,0-12.977-2.651-17.858-7.952c-4.882-5.299-7.323-12.72-7.323-22.261c0-9.398,2.458-17.029,7.376-22.894
		c4.916-5.864,11.343-8.796,19.282-8.796C653.791,61.547,657.671,62.522,661.431,64.469z M664.849,87.445
		c-0.387-4.263-1.281-7.667-2.682-10.216c-2.594-4.735-6.921-7.103-12.983-7.103c-4.345,0-7.99,1.629-10.934,4.888
		c-2.943,3.261-4.503,7.403-4.677,12.431H664.849z"/>
	<path d="M686.742,62.858h9.064v8.304c2.684-3.421,5.529-5.881,8.535-7.375c2.999-1.493,6.341-2.24,10.017-2.24
		c8.058,0,13.499,2.895,16.328,8.687c1.554,3.169,2.332,7.704,2.332,13.605v37.533h-9.701V84.493c0-3.57-0.514-6.446-1.536-8.633
		c-1.696-3.642-4.773-5.462-9.226-5.462c-2.261,0-4.114,0.236-5.563,0.709c-2.616,0.803-4.912,2.405-6.892,4.809
		c-1.591,1.93-2.624,3.924-3.102,5.983c-0.477,2.057-0.716,5-0.716,8.822v30.65h-9.541V62.858z"/>
	<path d="M761.645,109.462c-6.397-7.61-9.597-16.409-9.597-26.39c0-11.873,3.888-21.962,11.662-30.267
		c8.625-9.251,20.197-13.877,34.722-13.877c12.581,0,22.476,3.279,29.686,9.834c6.752,6.192,10.127,14.224,10.127,24.094
		c0,8.306-2.415,15.399-7.236,21.281c-4.825,5.883-10.223,8.826-16.195,8.826c-3.499,0-6.08-0.867-7.739-2.598
		c-1.663-1.731-2.493-3.816-2.493-6.256c0-0.4,0.035-0.819,0.105-1.254c0.073-0.441,0.159-0.893,0.266-1.368
		c-1.873,4.188-4.24,7.147-7.101,8.878c-2.863,1.73-5.815,2.598-8.855,2.598c-4.346,0-7.872-1.623-10.575-4.864
		c-2.705-3.242-4.053-7.414-4.053-12.512c0-7.248,2.307-13.64,6.916-19.177c4.612-5.536,9.568-8.304,14.869-8.304
		c3.607,0,6.581,1.075,8.932,3.222c2.352,2.151,3.596,4.738,3.737,7.759l2.651-9.179h7.793l-7.052,23.932
		c-0.528,1.856-0.917,3.35-1.166,4.479c-0.245,1.13-0.372,2.132-0.372,3.006c0,1.638,0.488,2.831,1.459,3.578
		c0.971,0.747,2.076,1.121,3.312,1.121c4.032,0,7.644-2.169,10.842-6.502c3.198-4.335,4.799-9.998,4.799-16.991
		c0-8.45-2.863-15.088-8.591-19.915c-5.724-4.827-13.428-7.24-23.11-7.24c-13.431,0-23.697,4.043-30.798,12.129
		c-6.082,6.884-9.118,15.536-9.118,25.951c0,9.107,2.896,16.756,8.693,22.947c6.787,7.323,16.45,10.981,28.996,10.981
		c5.865,0,11.323-0.953,16.381-2.867c5.052-1.912,9.682-4.488,13.886-7.731l3.501,4.919c-3.182,2.912-7.933,5.645-14.261,8.195
		c-6.326,2.548-13.288,3.821-20.885,3.821C781.009,123.72,769.629,118.967,761.645,109.462z M804.107,66.492
		c-1.464-1.803-3.486-2.705-6.064-2.705c-4.02,0-7.511,2.45-10.456,7.349c-2.948,4.899-4.422,9.771-4.422,14.615
		c0,3.57,0.759,6.293,2.278,8.167c1.516,1.875,3.424,2.816,5.717,2.816c4.765,0,8.48-2.871,11.147-8.609
		c2.664-5.735,3.998-10.917,3.998-15.542C806.306,70.325,805.57,68.294,804.107,66.492z"/>
	<path d="M913.673,46.959c5.38,5.354,8.367,11.438,8.962,18.249h-10.282c-1.149-5.172-3.429-9.27-6.848-12.293
		c-3.419-3.022-8.217-4.534-14.397-4.534c-7.528,0-13.611,2.779-18.247,8.337c-4.631,5.561-6.946,14.081-6.946,25.564
		c0,9.406,2.091,17.032,6.275,22.885c4.184,5.85,10.422,8.775,18.72,8.775c7.637,0,13.452-3.077,17.445-9.231
		c2.115-3.243,3.695-7.503,4.735-12.788h10.288c-0.911,8.452-3.916,15.537-9.013,21.253c-6.117,6.885-14.361,10.329-24.735,10.329
		c-8.942,0-16.452-2.826-22.532-8.474c-7.997-7.472-11.999-19.009-11.999-34.609c0-11.844,3.006-21.557,9.013-29.139
		c6.498-8.236,15.453-12.355,26.878-12.355C900.735,38.928,908.295,41.605,913.673,46.959z"/>
	<path d="M937.002,41.113h12.425l38.834,64.846V41.113h10.071v80.259H986.48l-39.409-64.769v64.769h-10.069V41.113z"/>
	<path d="M1015.137,41.113h33.67c9.176,0,15.704,2.806,19.582,8.414c2.275,3.315,3.412,7.14,3.412,11.474
		c0,5.064-1.394,9.215-4.185,12.456c-1.449,1.714-3.535,3.278-6.256,4.699c3.994,1.566,6.978,3.333,8.959,5.299
		c3.499,3.5,5.249,8.324,5.249,14.481c0,5.171-1.583,9.853-4.749,14.039c-4.729,6.264-12.251,9.397-22.561,9.397h-33.122V41.113z
		 M1044.863,75.042c4.499,0,7.998-0.638,10.498-1.911c3.929-2.003,5.893-5.61,5.893-10.817c0-5.246-2.088-8.778-6.268-10.602
		c-2.354-1.018-5.856-1.528-10.497-1.528h-19.015v24.858H1044.863z M1048.429,112.085c6.527,0,11.184-1.932,13.966-5.792
		c1.747-2.439,2.625-5.391,2.625-8.853c0-5.825-2.551-9.797-7.655-11.908c-2.71-1.13-6.296-1.693-10.756-1.693h-21.134v28.246
		H1048.429z"/>
	<path d="M1110.537,41.113h11.908l28.263,80.259h-11.554l-8.132-24.041h-30.553l-8.442,24.041h-10.816L1110.537,41.113z
		 M1128.03,88.483l-11.989-35.459l-12.459,35.459H1128.03z"/>
</g>
<text transform="matrix(0.9702 0 0 1 174.415 165.7061)" fill="#E9280B" font-family="'HelveticaNeueLTStd-Bd'" font-size="35.0368">x</text>
<g enable-background="new    ">
	<path d="M220.923,154.984h-17.169v-3.75h17.169V154.984z M220.923,162.483h-17.169v-3.75h17.169V162.483z"/>
	<path d="M237.781,157.858c0.137,3.154,1.633,4.591,4.318,4.591c1.938,0,3.502-1.228,3.808-2.35h4.25
		c-1.36,4.276-4.25,6.1-8.228,6.1c-5.542,0-8.975-3.926-8.975-9.529c0-5.436,3.638-9.57,8.975-9.57
		c5.984,0,8.875,5.187,8.534,10.759H237.781z M245.636,154.705c-0.441-2.524-1.496-3.854-3.842-3.854
		c-3.06,0-3.943,2.453-4.013,3.854H245.636z"/>
	<path d="M263.04,165.708h-5.372l-6.018-18.117h5.066l3.706,12.371h0.067l3.707-12.371h4.792L263.04,165.708z"/>
	<path d="M274.972,157.858c0.136,3.154,1.631,4.591,4.318,4.591c1.938,0,3.5-1.228,3.808-2.35h4.249
		c-1.36,4.276-4.249,6.1-8.228,6.1c-5.541,0-8.975-3.926-8.975-9.529c0-5.436,3.636-9.57,8.975-9.57
		c5.984,0,8.874,5.187,8.533,10.759H274.972z M282.824,154.705c-0.441-2.524-1.495-3.854-3.841-3.854
		c-3.06,0-3.944,2.453-4.011,3.854H282.824z"/>
	<path d="M290.506,147.591h4.588v2.522h0.103c1.225-2.031,3.332-3.014,5.373-3.014c5.133,0,6.425,2.979,6.425,7.464v11.145h-4.828
		v-10.231c0-2.979-0.85-4.451-3.093-4.451c-2.619,0-3.741,1.507-3.741,5.186v9.497h-4.827V147.591z"/>
	<path d="M316.784,147.591h3.537v3.331h-3.537v8.969c0,1.682,0.409,2.103,2.04,2.103c0.511,0,0.986-0.035,1.497-0.141v3.891
		c-0.816,0.141-1.869,0.175-2.822,0.175c-2.957,0-5.542-0.702-5.542-4.31v-10.687h-2.924v-3.331h2.924v-5.431h4.828V147.591z"/>
	<path d="M331.164,147.1c5.542,0,9.112,3.785,9.112,9.57c0,5.745-3.57,9.529-9.112,9.529c-5.507,0-9.077-3.784-9.077-9.529
		C322.086,150.885,325.656,147.1,331.164,147.1z M331.164,162.449c3.297,0,4.283-2.907,4.283-5.779c0-2.91-0.986-5.819-4.283-5.819
		c-3.263,0-4.249,2.909-4.249,5.819C326.915,159.542,327.9,162.449,331.164,162.449z"/>
	<path d="M358.733,145.314h-7.275v-4.624h19.888v4.624h-7.275v20.394h-5.338V145.314z"/>
	<path d="M374.131,140.69h18.155v4.624h-12.817v5.36h11.764v4.273h-11.764v6.134h13.089v4.626h-18.427V140.69z"/>
	<path d="M396.16,140.69h10.472c6.289,0,11.014,4.062,11.014,12.366c0,7.253-3.603,12.651-11.014,12.651H396.16V140.69z
		 M401.498,161.082h4.76c3.093,0,6.051-1.961,6.051-7.497c0-5.049-1.699-8.271-7.004-8.271h-3.807V161.082z"/>
	<path d="M438.823,147.1c5.542,0,9.113,3.785,9.113,9.57c0,5.745-3.571,9.529-9.113,9.529c-5.507,0-9.078-3.784-9.078-9.529
		C429.745,150.885,433.315,147.1,438.823,147.1z M438.823,162.449c3.299,0,4.285-2.907,4.285-5.779c0-2.91-0.986-5.819-4.285-5.819
		c-3.264,0-4.249,2.909-4.249,5.819C434.574,159.542,435.559,162.449,438.823,162.449z"/>
	<path d="M451.059,147.591h4.592v3.365h0.066c0.884-2.278,3.266-3.856,5.61-3.856c0.34,0,0.748,0.072,1.052,0.178v4.624
		c-0.44-0.103-1.154-0.175-1.732-0.175c-3.536,0-4.761,2.629-4.761,5.815v8.166h-4.828V147.591z"/>
	<path d="M481.182,164.551c0,2.979-1.02,8.024-9.112,8.024c-3.467,0-7.513-1.681-7.751-5.816h4.794
		c0.441,1.859,1.903,2.487,3.603,2.487c2.688,0,3.91-1.892,3.875-4.482v-2.383h-0.067c-1.054,1.892-3.162,2.8-5.269,2.8
		c-5.271,0-7.515-4.133-7.515-9.107c0-4.696,2.618-8.974,7.548-8.974c2.312,0,4.08,0.806,5.235,2.91h0.067v-2.419h4.591V164.551z
		 M476.59,156.423c0-2.943-0.985-5.572-4.113-5.572c-2.719,0-3.908,2.453-3.908,5.152c0,2.589,0.951,5.431,3.908,5.431
		C475.231,161.434,476.59,159.015,476.59,156.423z"/>
	<path d="M484.851,153.163c0.271-4.661,4.317-6.063,8.261-6.063c3.5,0,7.717,0.806,7.717,5.152v9.425
		c0,1.648,0.169,3.296,0.612,4.031h-4.896c-0.171-0.561-0.306-1.157-0.341-1.755c-1.53,1.648-3.773,2.246-5.915,2.246
		c-3.333,0-5.985-1.718-5.985-5.431c0-4.099,2.993-5.082,5.985-5.504c2.958-0.454,5.712-0.35,5.712-2.382
		c0-2.139-1.427-2.451-3.128-2.451c-1.837,0-3.026,0.771-3.196,2.731H484.851z M496.002,156.843
		c-0.815,0.736-2.517,0.772-4.013,1.052c-1.496,0.313-2.855,0.839-2.855,2.662c0,1.858,1.394,2.313,2.958,2.313
		c3.774,0,3.91-3.085,3.91-4.171V156.843z"/>
	<path d="M504.566,147.591h4.592v2.522h0.1c1.225-2.031,3.333-3.014,5.371-3.014c5.135,0,6.427,2.979,6.427,7.464v11.145h-4.828
		v-10.231c0-2.979-0.85-4.451-3.095-4.451c-2.617,0-3.739,1.507-3.739,5.186v9.497h-4.828V147.591z"/>
	<path d="M529.688,144.79h-4.827v-4.1h4.827V144.79z M524.861,147.591h4.827v18.117h-4.827V147.591z"/>
	<path d="M532.408,161.958l9.145-10.618h-8.464v-3.749h14.822v3.749l-9.146,10.618h9.792v3.75h-16.149V161.958z"/>
	<path d="M550.934,153.163c0.271-4.661,4.317-6.063,8.262-6.063c3.502,0,7.717,0.806,7.717,5.152v9.425
		c0,1.648,0.17,3.296,0.612,4.031h-4.896c-0.169-0.561-0.305-1.157-0.339-1.755c-1.531,1.648-3.774,2.246-5.916,2.246
		c-3.332,0-5.985-1.718-5.985-5.431c0-4.099,2.992-5.082,5.985-5.504c2.958-0.454,5.711-0.35,5.711-2.382
		c0-2.139-1.427-2.451-3.128-2.451c-1.836,0-3.026,0.771-3.196,2.731H550.934z M562.085,156.843
		c-0.815,0.736-2.516,0.772-4.012,1.052c-1.496,0.313-2.855,0.839-2.855,2.662c0,1.858,1.393,2.313,2.957,2.313
		c3.774,0,3.91-3.085,3.91-4.171V156.843z"/>
	<path d="M583.196,163.394h-0.067c-1.123,1.965-3.094,2.806-5.338,2.806c-5.304,0-7.888-4.697-7.888-9.708
		c0-4.87,2.619-9.392,7.785-9.392c2.075,0,4.115,0.913,5.203,2.698h0.066v-9.107h4.829v25.018h-4.59V163.394z M578.981,150.851
		c-3.163,0-4.25,2.803-4.25,5.781c0,2.839,1.257,5.817,4.25,5.817c3.195,0,4.147-2.874,4.147-5.854
		C583.129,153.653,582.108,150.851,578.981,150.851z"/>
	<path d="M599.955,147.1c5.541,0,9.112,3.785,9.112,9.57c0,5.745-3.571,9.529-9.112,9.529c-5.507,0-9.078-3.784-9.078-9.529
		C590.877,150.885,594.448,147.1,599.955,147.1z M599.955,162.449c3.298,0,4.283-2.907,4.283-5.779c0-2.91-0.985-5.819-4.283-5.819
		c-3.264,0-4.25,2.909-4.25,5.819C595.705,159.542,596.691,162.449,599.955,162.449z"/>
	<path d="M634.188,163.394h-0.069c-1.123,1.965-3.093,2.806-5.338,2.806c-5.304,0-7.887-4.697-7.887-9.708
		c0-4.87,2.618-9.392,7.786-9.392c2.074,0,4.114,0.913,5.201,2.698h0.068v-9.107h4.829v25.018h-4.59V163.394z M629.972,150.851
		c-3.162,0-4.25,2.803-4.25,5.781c0,2.839,1.258,5.817,4.25,5.817c3.196,0,4.147-2.874,4.147-5.854
		C634.119,153.653,633.099,150.851,629.972,150.851z"/>
	<path d="M646.39,157.858c0.136,3.154,1.632,4.591,4.317,4.591c1.938,0,3.503-1.228,3.808-2.35h4.251
		c-1.361,4.276-4.251,6.1-8.229,6.1c-5.541,0-8.975-3.926-8.975-9.529c0-5.436,3.638-9.57,8.975-9.57
		c5.984,0,8.875,5.187,8.534,10.759H646.39z M654.244,154.705c-0.442-2.524-1.496-3.854-3.841-3.854
		c-3.059,0-3.945,2.453-4.012,3.854H654.244z"/>
	<path d="M672.429,150.922h-2.891v-3.331h2.891v-1.401c0-3.189,1.939-5.499,5.882-5.499c0.853,0,1.733,0.103,2.549,0.138v3.715
		c-0.576-0.068-1.155-0.106-1.767-0.106c-1.291,0-1.836,0.562-1.836,2.07v1.084h3.33v3.331h-3.33v14.786h-4.828V150.922z"/>
	<path d="M691.229,147.1c5.543,0,9.111,3.785,9.111,9.57c0,5.745-3.568,9.529-9.111,9.529c-5.507,0-9.076-3.784-9.076-9.529
		C682.152,150.885,685.722,147.1,691.229,147.1z M691.229,162.449c3.299,0,4.283-2.907,4.283-5.779c0-2.91-0.984-5.819-4.283-5.819
		c-3.262,0-4.25,2.909-4.25,5.819C686.979,159.542,687.967,162.449,691.229,162.449z"/>
	<path d="M703.467,147.591h4.589v3.365h0.069c0.882-2.278,3.261-3.856,5.608-3.856c0.338,0,0.748,0.072,1.052,0.178v4.624
		c-0.44-0.103-1.155-0.175-1.734-0.175c-3.534,0-4.759,2.629-4.759,5.815v8.166h-4.825V147.591z"/>
	<path d="M716.825,147.591h4.556v2.454h0.066c1.258-1.858,3.095-2.945,5.375-2.945c2.209,0,4.182,0.843,5.131,3.014
		c1.021-1.577,2.856-3.014,5.305-3.014c3.742,0,6.426,1.789,6.426,6.485v12.123h-4.826v-10.269c0-2.419-0.205-4.414-2.959-4.414
		c-2.721,0-3.232,2.312-3.232,4.588v10.095h-4.826v-10.163c0-2.102,0.136-4.52-2.923-4.52c-0.952,0-3.266,0.63-3.266,4.171v10.512
		h-4.826V147.591z"/>
	<path d="M747.281,153.163c0.275-4.661,4.321-6.063,8.261-6.063c3.505,0,7.72,0.806,7.72,5.152v9.425
		c0,1.648,0.173,3.296,0.611,4.031h-4.896c-0.17-0.561-0.304-1.157-0.339-1.755c-1.528,1.648-3.773,2.246-5.916,2.246
		c-3.331,0-5.982-1.718-5.982-5.431c0-4.099,2.989-5.082,5.982-5.504c2.957-0.454,5.71-0.35,5.71-2.382
		c0-2.139-1.426-2.451-3.126-2.451c-1.835,0-3.024,0.771-3.197,2.731H747.281z M758.433,156.843
		c-0.815,0.736-2.515,0.772-4.009,1.052c-1.499,0.313-2.858,0.839-2.858,2.662c0,1.858,1.395,2.313,2.96,2.313
		c3.773,0,3.907-3.085,3.907-4.171V156.843z"/>
	<path d="M781.416,144.79h-4.829v-4.1h4.829V144.79z M776.587,147.591h4.829v18.117h-4.829V147.591z"/>
	<path d="M785.221,147.591h4.59v2.522h0.103c1.224-2.031,3.332-3.014,5.371-3.014c5.131,0,6.426,2.979,6.426,7.464v11.145h-4.83
		v-10.231c0-2.979-0.848-4.451-3.092-4.451c-2.619,0-3.741,1.507-3.741,5.186v9.497h-4.826V147.591z"/>
	<path d="M817.925,163.394h-0.066c-1.125,1.965-3.097,2.806-5.342,2.806c-5.304,0-7.887-4.697-7.887-9.708
		c0-4.87,2.618-9.392,7.785-9.392c2.075,0,4.114,0.913,5.201,2.698h0.071v-9.107h4.826v25.018h-4.589V163.394z M813.708,150.851
		c-3.159,0-4.251,2.803-4.251,5.781c0,2.839,1.261,5.817,4.251,5.817c3.196,0,4.15-2.874,4.15-5.854
		C817.858,153.653,816.838,150.851,813.708,150.851z"/>
	<path d="M830.128,157.858c0.138,3.154,1.631,4.591,4.315,4.591c1.941,0,3.505-1.228,3.809-2.35h4.252
		c-1.361,4.276-4.252,6.1-8.229,6.1c-5.541,0-8.974-3.926-8.974-9.529c0-5.436,3.639-9.57,8.974-9.57
		c5.985,0,8.876,5.187,8.535,10.759H830.128z M837.981,154.705c-0.442-2.524-1.497-3.854-3.841-3.854
		c-3.06,0-3.945,2.453-4.013,3.854H837.981z"/>
	<path d="M845.659,147.591h4.592v2.313h0.067c1.158-1.927,3.061-2.805,5.236-2.805c5.507,0,7.991,4.59,7.991,9.743
		c0,4.834-2.584,9.356-7.72,9.356c-2.106,0-4.112-0.947-5.269-2.734h-0.067v8.619h-4.831V147.591z M858.717,156.702
		c0-2.874-1.121-5.852-4.217-5.852c-3.16,0-4.182,2.909-4.182,5.852s1.091,5.747,4.217,5.747
		C857.697,162.449,858.717,159.645,858.717,156.702z"/>
	<path d="M870.409,157.858c0.138,3.154,1.634,4.591,4.32,4.591c1.936,0,3.499-1.228,3.809-2.35h4.248
		c-1.358,4.276-4.248,6.1-8.226,6.1c-5.544,0-8.979-3.926-8.979-9.529c0-5.436,3.639-9.57,8.979-9.57
		c5.981,0,8.871,5.187,8.533,10.759H870.409z M878.263,154.705c-0.441-2.524-1.493-3.854-3.841-3.854
		c-3.061,0-3.945,2.453-4.013,3.854H878.263z"/>
	<path d="M885.944,147.591h4.593v2.522h0.099c1.225-2.031,3.333-3.014,5.371-3.014c5.135,0,6.426,2.979,6.426,7.464v11.145h-4.828
		v-10.231c0-2.979-0.85-4.451-3.094-4.451c-2.616,0-3.737,1.507-3.737,5.186v9.497h-4.829V147.591z"/>
	<path d="M918.646,163.394h-0.067c-1.121,1.965-3.092,2.806-5.336,2.806c-5.305,0-7.887-4.697-7.887-9.708
		c0-4.87,2.613-9.392,7.784-9.392c2.072,0,4.114,0.913,5.201,2.698h0.067v-9.107h4.829v25.018h-4.592V163.394z M914.432,150.851
		c-3.162,0-4.248,2.803-4.248,5.781c0,2.839,1.256,5.817,4.248,5.817c3.199,0,4.147-2.874,4.147-5.854
		C918.579,153.653,917.561,150.851,914.432,150.851z"/>
	<path d="M931.837,144.79h-4.827v-4.1h4.827V144.79z M927.01,147.591h4.827v18.117h-4.827V147.591z"/>
	<path d="M939.619,157.858c0.138,3.154,1.635,4.591,4.32,4.591c1.937,0,3.502-1.228,3.808-2.35h4.251
		c-1.36,4.276-4.251,6.1-8.229,6.1c-5.543,0-8.978-3.926-8.978-9.529c0-5.436,3.638-9.57,8.978-9.57
		c5.983,0,8.873,5.187,8.534,10.759H939.619z M947.476,154.705c-0.441-2.524-1.496-3.854-3.843-3.854
		c-3.06,0-3.943,2.453-4.014,3.854H947.476z"/>
	<path d="M955.156,147.591h4.59v2.522h0.103c1.223-2.031,3.331-3.014,5.371-3.014c5.135,0,6.426,2.979,6.426,7.464v11.145h-4.826
		v-10.231c0-2.979-0.851-4.451-3.096-4.451c-2.617,0-3.742,1.507-3.742,5.186v9.497h-4.825V147.591z"/>
	<path d="M981.434,147.591h3.535v3.331h-3.535v8.969c0,1.682,0.408,2.103,2.038,2.103c0.513,0,0.99-0.035,1.497-0.141v3.891
		c-0.815,0.141-1.869,0.175-2.822,0.175c-2.958,0-5.543-0.702-5.543-4.31v-10.687h-2.921v-3.331h2.921v-5.431h4.83V147.591z"/>
	<path d="M991.258,157.858c0.135,3.154,1.632,4.591,4.315,4.591c1.942,0,3.503-1.228,3.81-2.35h4.252
		c-1.362,4.276-4.252,6.1-8.229,6.1c-5.542,0-8.974-3.926-8.974-9.529c0-5.436,3.634-9.57,8.974-9.57
		c5.985,0,8.875,5.187,8.533,10.759H991.258z M999.111,154.705c-0.441-2.524-1.496-3.854-3.844-3.854
		c-3.06,0-3.942,2.453-4.01,3.854H999.111z"/>
</g>
</svg>
