<?xml version="1.0" encoding="utf-8"?>
<!-- Generator: Adobe Illustrator 16.0.3, SVG Export Plug-In . SVG Version: 6.00 Build 0)  -->
<!DOCTYPE svg PUBLIC "-//W3C//DTD SVG 1.1//EN" "http://www.w3.org/Graphics/SVG/1.1/DTD/svg11.dtd">
<svg version="1.1" id="Layer_1" xmlns="http://www.w3.org/2000/svg" xmlns:xlink="http://www.w3.org/1999/xlink" x="0px" y="0px"
	 width="199.857px" height="28.787px" viewBox="172.77 37.609 199.857 28.787"
	 enable-background="new 172.77 37.609 199.857 28.787" xml:space="preserve">
<g>
	<g>
		<path fill="#E9280B" d="M177.248,43.525h-4.479v-4.223h13.875v4.223h-4.477v12.248h-4.92V43.525z"/>
		<path fill="#E9280B" d="M187.409,39.302h13.47v4.223h-8.546v2.052h8.546V49.5h-8.546v2.053h8.548v4.221h-13.472V39.302z"/>
		<path fill="#E9280B" d="M201.708,39.302h8.079c5.326,0,7.208,4.061,7.208,8.212c0,5.053-2.597,8.259-8.169,8.259h-7.119
			L201.708,39.302L201.708,39.302z M206.631,51.552h1.926c3.066,0,3.516-2.562,3.516-4.109c0-1.035-0.315-3.918-3.875-3.918h-1.566
			V51.552L206.631,51.552z"/>
	</g>
	<g>
		<g>
			<path fill="#E9280B" d="M224.07,49.425l-1.502-2.566l-1.465,2.566h-3.607l3.425-5.189l-3.298-4.965h3.609l1.336,2.455
				l1.375-2.455h3.607l-3.297,4.965l3.425,5.189H224.07z"/>
		</g>
	</g>
</g>
<g enable-background="new    ">
	<path d="M239.033,50.884c0,1.386-0.198,2.461-0.596,3.229c-0.738,1.398-2.141,2.098-4.208,2.098c-1.192,0-2.212-0.332-3.059-0.999
		c-0.847-0.666-1.269-1.853-1.269-3.556v-1.173h2.025v1.173c0,0.893,0.193,1.564,0.581,2.016c0.388,0.449,0.989,0.674,1.808,0.674
		c1.15,0,1.903-0.404,2.258-1.217c0.217-0.498,0.326-1.439,0.326-2.824v-10.93h2.134L239.033,50.884L239.033,50.884z"/>
	<path d="M250.451,45.011c1.025,1.026,1.538,2.536,1.538,4.529c0,1.926-0.452,3.518-1.355,4.773
		c-0.903,1.258-2.306,1.887-4.206,1.887c-1.584,0-2.843-0.557-3.775-1.668c-0.932-1.111-1.398-2.605-1.398-4.479
		c0-2.008,0.492-3.607,1.474-4.797c0.983-1.189,2.302-1.785,3.958-1.785C248.171,43.472,249.426,43.986,250.451,45.011z
		 M249.241,52.958c0.474-1.008,0.712-2.128,0.712-3.362c0-1.115-0.172-2.022-0.514-2.722c-0.543-1.1-1.479-1.649-2.807-1.649
		c-1.179,0-2.035,0.468-2.571,1.405c-0.535,0.937-0.803,2.066-0.803,3.389c0,1.272,0.268,2.332,0.803,3.18
		c0.536,0.848,1.386,1.271,2.55,1.271C247.89,54.469,248.766,53.966,249.241,52.958z"/>
	<path d="M255.342,43.818l3.099,9.736l3.228-9.736h2.135l-4.367,11.957h-2.078l-4.279-11.957H255.342z"/>
	<path d="M272.643,44.148c0.768,0.398,1.354,0.914,1.754,1.546c0.388,0.603,0.646,1.306,0.775,2.11
		c0.115,0.551,0.173,1.43,0.173,2.635h-8.438c0.035,1.217,0.312,2.192,0.828,2.928s1.314,1.104,2.396,1.104
		c1.01,0,1.816-0.349,2.418-1.044c0.337-0.403,0.575-0.871,0.716-1.401h1.918c-0.052,0.438-0.219,0.928-0.505,1.468
		c-0.285,0.54-0.604,0.98-0.954,1.323c-0.588,0.596-1.315,0.998-2.183,1.205c-0.466,0.119-0.992,0.18-1.58,0.18
		c-1.436,0-2.652-0.542-3.648-1.625c-0.998-1.083-1.497-2.6-1.497-4.549c0-1.921,0.503-3.48,1.507-4.679
		c1.005-1.198,2.318-1.798,3.941-1.798C271.081,43.55,271.874,43.75,272.643,44.148z M273.341,48.842
		c-0.079-0.871-0.262-1.566-0.548-2.087c-0.53-0.969-1.414-1.452-2.653-1.452c-0.888,0-1.633,0.333-2.234,0.999
		s-0.92,1.513-0.956,2.54H273.341z"/>
	<path d="M277.814,43.818h1.853v1.697c0.548-0.699,1.13-1.201,1.744-1.508c0.612-0.305,1.296-0.457,2.047-0.457
		c1.646,0,2.759,0.592,3.337,1.775c0.317,0.647,0.477,1.574,0.477,2.779v7.67h-1.982V48.24c0-0.73-0.105-1.318-0.314-1.765
		c-0.346-0.744-0.975-1.116-1.885-1.116c-0.463,0-0.841,0.049-1.137,0.145c-0.535,0.164-1.004,0.492-1.408,0.982
		c-0.326,0.395-0.537,0.803-0.635,1.223c-0.098,0.421-0.146,1.022-0.146,1.803v6.264h-1.949V43.818L277.814,43.818z"/>
	<path d="M293.121,53.341c-1.307-1.555-1.961-3.354-1.961-5.393c0-2.426,0.795-4.488,2.383-6.186
		c1.763-1.891,4.127-2.836,7.096-2.836c2.57,0,4.593,0.671,6.066,2.01c1.38,1.266,2.069,2.907,2.069,4.924
		c0,1.697-0.493,3.146-1.479,4.35c-0.986,1.201-2.089,1.803-3.31,1.803c-0.715,0-1.242-0.177-1.582-0.531
		c-0.34-0.354-0.509-0.779-0.509-1.277c0-0.082,0.007-0.168,0.021-0.256c0.015-0.091,0.032-0.184,0.054-0.28
		c-0.383,0.856-0.865,1.46-1.451,1.813c-0.584,0.354-1.188,0.531-1.809,0.531c-0.889,0-1.609-0.331-2.161-0.994
		c-0.553-0.662-0.829-1.515-0.829-2.557c0-1.48,0.473-2.787,1.414-3.918c0.942-1.132,1.955-1.697,3.039-1.697
		c0.736,0,1.344,0.22,1.824,0.658c0.48,0.439,0.735,0.969,0.764,1.586l0.542-1.876h1.593l-1.441,4.891
		c-0.107,0.379-0.188,0.685-0.238,0.915c-0.05,0.23-0.076,0.436-0.076,0.614c0,0.335,0.1,0.579,0.299,0.731
		c0.198,0.152,0.424,0.229,0.676,0.229c0.824,0,1.562-0.443,2.217-1.328c0.653-0.887,0.98-2.043,0.98-3.473
		c0-1.727-0.585-3.083-1.756-4.069c-1.17-0.986-2.744-1.479-4.723-1.479c-2.744,0-4.842,0.826-6.293,2.479
		c-1.244,1.406-1.863,3.175-1.863,5.303c0,1.861,0.592,3.424,1.775,4.689c1.387,1.496,3.361,2.244,5.926,2.244
		c1.199,0,2.314-0.195,3.348-0.586c1.032-0.391,1.979-0.917,2.838-1.58l0.715,1.006c-0.65,0.595-1.621,1.153-2.914,1.674
		c-1.293,0.521-2.715,0.781-4.268,0.781C297.078,56.255,294.753,55.285,293.121,53.341z M301.799,44.56
		c-0.3-0.367-0.713-0.553-1.24-0.553c-0.82,0-1.534,0.502-2.137,1.502c-0.602,1.002-0.902,1.997-0.902,2.986
		c0,0.73,0.154,1.287,0.465,1.67c0.31,0.383,0.699,0.575,1.168,0.575c0.975,0,1.733-0.587,2.278-1.759
		c0.544-1.172,0.817-2.231,0.817-3.176C302.248,45.343,302.098,44.929,301.799,44.56z"/>
	<path d="M324.188,40.57c1.1,1.094,1.71,2.336,1.831,3.729h-2.101c-0.235-1.057-0.701-1.895-1.399-2.512
		c-0.699-0.617-1.68-0.927-2.942-0.927c-1.538,0-2.781,0.567-3.729,1.704c-0.946,1.136-1.42,2.877-1.42,5.224
		c0,1.922,0.428,3.48,1.282,4.677c0.855,1.195,2.13,1.793,3.825,1.793c1.562,0,2.749-0.629,3.565-1.887
		c0.432-0.662,0.755-1.533,0.968-2.613h2.103c-0.187,1.728-0.801,3.176-1.842,4.344c-1.25,1.406-2.936,2.11-5.055,2.11
		c-1.828,0-3.362-0.577-4.604-1.731c-1.635-1.527-2.452-3.885-2.452-7.072c0-2.421,0.614-4.406,1.842-5.955
		c1.328-1.684,3.157-2.525,5.492-2.525C321.544,38.927,323.089,39.475,324.188,40.57z"/>
	<path d="M328.955,39.375h2.539l7.937,13.252V39.375h2.058v16.4h-2.422l-8.054-13.234v13.234h-2.058V39.375z"/>
	<path d="M344.923,39.375h6.88c1.875,0,3.209,0.573,4.002,1.719c0.465,0.678,0.697,1.459,0.697,2.346
		c0,1.035-0.285,1.883-0.855,2.545c-0.296,0.351-0.723,0.67-1.278,0.961c0.816,0.319,1.426,0.681,1.831,1.082
		c0.715,0.715,1.072,1.701,1.072,2.959c0,1.057-0.323,2.014-0.971,2.869c-0.966,1.28-2.503,1.92-4.61,1.92h-6.769L344.923,39.375
		L344.923,39.375z M350.997,46.308c0.919,0,1.635-0.131,2.146-0.391c0.803-0.41,1.204-1.146,1.204-2.211
		c0-1.072-0.427-1.793-1.281-2.166c-0.48-0.208-1.196-0.312-2.145-0.312h-3.886v5.08H350.997z M351.726,53.878
		c1.334,0,2.285-0.396,2.854-1.184c0.356-0.499,0.536-1.103,0.536-1.811c0-1.189-0.521-2.002-1.564-2.433
		c-0.554-0.231-1.286-0.347-2.198-0.347h-4.318v5.773H351.726z"/>
	<path d="M364.418,39.375h2.433l5.776,16.4h-2.361l-1.662-4.912h-6.243l-1.726,4.912h-2.21L364.418,39.375z M367.992,49.054
		l-2.45-7.246l-2.546,7.246H367.992z"/>
</g>
<g enable-background="new    ">
	<path fill="#E9280B" d="M174.412,62.888l-1.181-1.753h1.124l0.633,0.966l0.625-0.966h1.09l-1.181,1.731l1.325,1.969h-1.124
		l-0.75-1.167l-0.749,1.167h-1.104L174.412,62.888z"/>
</g>
<g enable-background="new    ">
	<path d="M182.625,62.644h-3.51v-0.766h3.51V62.644z M182.625,64.177h-3.51V63.41h3.51V64.177z"/>
	<path d="M186.069,63.232c0.028,0.645,0.333,0.938,0.882,0.938c0.396,0,0.717-0.251,0.779-0.48h0.867
		c-0.277,0.874-0.867,1.247-1.681,1.247c-1.133,0-1.834-0.802-1.834-1.947c0-1.11,0.743-1.956,1.834-1.956
		c1.223,0,1.813,1.061,1.743,2.199H186.069L186.069,63.232z M187.674,62.587c-0.09-0.516-0.305-0.788-0.785-0.788
		c-0.625,0-0.805,0.501-0.819,0.788H187.674z"/>
	<path d="M191.23,64.835h-1.098l-1.229-3.702h1.035l0.757,2.528h0.014l0.758-2.528h0.979L191.23,64.835z"/>
	<path d="M193.67,63.232c0.027,0.645,0.332,0.938,0.882,0.938c0.396,0,0.716-0.251,0.778-0.48h0.868
		c-0.278,0.874-0.868,1.247-1.682,1.247c-1.132,0-1.834-0.802-1.834-1.947c0-1.11,0.743-1.956,1.834-1.956
		c1.224,0,1.813,1.061,1.743,2.199H193.67L193.67,63.232z M195.273,62.587c-0.09-0.516-0.305-0.788-0.785-0.788
		c-0.625,0-0.805,0.501-0.818,0.788H195.273z"/>
	<path d="M196.844,61.133h0.938v0.516h0.021c0.25-0.415,0.681-0.616,1.098-0.616c1.049,0,1.312,0.609,1.312,1.525v2.277h-0.986
		v-2.09c0-0.609-0.174-0.91-0.632-0.91c-0.535,0-0.765,0.308-0.765,1.06v1.94h-0.986V61.133z"/>
	<path d="M202.213,61.133h0.724v0.681h-0.724v1.833c0,0.344,0.084,0.43,0.418,0.43c0.104,0,0.201-0.007,0.306-0.028v0.795
		c-0.167,0.028-0.382,0.035-0.577,0.035c-0.604,0-1.133-0.143-1.133-0.881v-2.184h-0.597v-0.681h0.597v-1.11h0.987L202.213,61.133
		L202.213,61.133z"/>
	<path d="M205.152,61.033c1.133,0,1.861,0.773,1.861,1.956c0,1.174-0.729,1.947-1.861,1.947c-1.125,0-1.855-0.773-1.855-1.947
		C203.297,61.806,204.026,61.033,205.152,61.033z M205.152,64.169c0.674,0,0.875-0.594,0.875-1.181c0-0.595-0.201-1.189-0.875-1.189
		c-0.667,0-0.869,0.595-0.869,1.189C204.283,63.576,204.485,64.169,205.152,64.169z"/>
	<path d="M210.785,60.667h-1.486v-0.944h4.064v0.944h-1.486v4.168h-1.092V60.667z"/>
	<path d="M213.933,59.723h3.71v0.944h-2.619v1.096h2.404v0.873h-2.404v1.254h2.675v0.945h-3.766V59.723z"/>
	<path d="M218.434,59.723h2.141c1.285,0,2.25,0.83,2.25,2.526c0,1.482-0.736,2.586-2.25,2.586h-2.141V59.723z M219.525,63.89h0.973
		c0.632,0,1.236-0.4,1.236-1.531c0-1.032-0.348-1.691-1.432-1.691h-0.777V63.89z"/>
	<path d="M227.152,61.033c1.133,0,1.862,0.773,1.862,1.956c0,1.174-0.729,1.947-1.862,1.947c-1.125,0-1.855-0.773-1.855-1.947
		C225.297,61.806,226.027,61.033,227.152,61.033z M227.152,64.169c0.674,0,0.875-0.594,0.875-1.181c0-0.595-0.201-1.189-0.875-1.189
		c-0.667,0-0.868,0.595-0.868,1.189C226.284,63.576,226.485,64.169,227.152,64.169z"/>
	<path d="M229.652,61.133h0.939v0.688h0.013c0.181-0.466,0.667-0.788,1.146-0.788c0.069,0,0.153,0.016,0.215,0.037v0.944
		c-0.09-0.021-0.235-0.036-0.354-0.036c-0.723,0-0.974,0.537-0.974,1.189v1.668h-0.986V61.133L229.652,61.133z"/>
	<path d="M235.809,64.599c0,0.609-0.209,1.64-1.862,1.64c-0.708,0-1.535-0.343-1.584-1.188h0.979c0.09,0.38,0.389,0.508,0.736,0.508
		c0.549,0,0.799-0.387,0.792-0.916v-0.486h-0.014c-0.216,0.387-0.646,0.572-1.077,0.572c-1.076,0-1.535-0.845-1.535-1.861
		c0-0.959,0.535-1.834,1.543-1.834c0.472,0,0.833,0.165,1.069,0.596h0.014v-0.495h0.938V64.599L235.809,64.599z M234.87,62.938
		c0-0.601-0.201-1.139-0.841-1.139c-0.555,0-0.799,0.501-0.799,1.054c0,0.528,0.195,1.109,0.799,1.109
		C234.592,63.962,234.87,63.468,234.87,62.938z"/>
	<path d="M236.559,62.272c0.055-0.952,0.882-1.239,1.688-1.239c0.715,0,1.577,0.165,1.577,1.053v1.926
		c0,0.338,0.034,0.674,0.125,0.824h-1.001c-0.034-0.115-0.062-0.236-0.069-0.358c-0.312,0.337-0.771,0.459-1.208,0.459
		c-0.682,0-1.224-0.351-1.224-1.11c0-0.838,0.612-1.038,1.224-1.125c0.604-0.092,1.167-0.07,1.167-0.486c0-0.438-0.292-0.5-0.64-0.5
		c-0.375,0-0.618,0.156-0.652,0.558H236.559L236.559,62.272z M238.837,63.024c-0.167,0.15-0.515,0.157-0.82,0.215
		c-0.306,0.063-0.583,0.171-0.583,0.544c0,0.38,0.285,0.473,0.604,0.473c0.771,0,0.799-0.631,0.799-0.852V63.024z"/>
	<path d="M240.587,61.133h0.938v0.516h0.021c0.25-0.415,0.681-0.616,1.098-0.616c1.05,0,1.313,0.609,1.313,1.525v2.277h-0.986v-2.09
		c0-0.609-0.174-0.91-0.633-0.91c-0.535,0-0.764,0.308-0.764,1.06v1.94h-0.987V61.133z"/>
	<path d="M245.721,60.561h-0.986v-0.838h0.986V60.561z M244.734,61.133h0.986v3.702h-0.986V61.133z"/>
	<path d="M246.276,64.07l1.869-2.17h-1.729v-0.767h3.028V61.9l-1.868,2.17h2v0.766h-3.3V64.07z"/>
	<path d="M250.062,62.272c0.055-0.952,0.882-1.239,1.688-1.239c0.717,0,1.578,0.165,1.578,1.053v1.926
		c0,0.338,0.034,0.674,0.125,0.824h-1.001c-0.034-0.115-0.062-0.236-0.069-0.358c-0.312,0.337-0.771,0.459-1.209,0.459
		c-0.681,0-1.223-0.351-1.223-1.11c0-0.838,0.611-1.038,1.223-1.125c0.604-0.092,1.167-0.07,1.167-0.486c0-0.438-0.292-0.5-0.64-0.5
		c-0.375,0-0.617,0.156-0.652,0.558H250.062L250.062,62.272z M252.341,63.024c-0.167,0.15-0.515,0.157-0.819,0.215
		c-0.307,0.063-0.584,0.171-0.584,0.544c0,0.38,0.285,0.473,0.604,0.473c0.771,0,0.799-0.631,0.799-0.852V63.024L252.341,63.024z"/>
	<path d="M256.655,64.363h-0.015c-0.229,0.401-0.631,0.573-1.09,0.573c-1.084,0-1.612-0.96-1.612-1.983
		c0-0.996,0.535-1.92,1.591-1.92c0.424,0,0.841,0.188,1.063,0.552h0.013v-1.861h0.987v5.112h-0.938L256.655,64.363L256.655,64.363z
		 M255.794,61.799c-0.646,0-0.868,0.573-0.868,1.182c0,0.58,0.256,1.188,0.868,1.188c0.653,0,0.847-0.588,0.847-1.196
		C256.642,62.373,256.433,61.799,255.794,61.799z"/>
	<path d="M260.08,61.033c1.132,0,1.861,0.773,1.861,1.956c0,1.174-0.729,1.947-1.861,1.947c-1.125,0-1.855-0.773-1.855-1.947
		C258.225,61.806,258.955,61.033,260.08,61.033z M260.08,64.169c0.674,0,0.875-0.594,0.875-1.181c0-0.595-0.201-1.189-0.875-1.189
		c-0.668,0-0.869,0.595-0.869,1.189C259.211,63.576,259.412,64.169,260.08,64.169z"/>
	<path d="M267.075,64.363h-0.015c-0.229,0.401-0.631,0.573-1.09,0.573c-1.084,0-1.612-0.96-1.612-1.983
		c0-0.996,0.535-1.92,1.591-1.92c0.424,0,0.842,0.188,1.063,0.552h0.014v-1.861h0.987v5.112h-0.938V64.363z M266.214,61.799
		c-0.646,0-0.868,0.573-0.868,1.182c0,0.58,0.257,1.188,0.868,1.188c0.653,0,0.847-0.588,0.847-1.196
		C267.061,62.373,266.853,61.799,266.214,61.799z"/>
	<path d="M269.568,63.232c0.028,0.645,0.334,0.938,0.883,0.938c0.396,0,0.716-0.251,0.777-0.48h0.869
		c-0.277,0.874-0.869,1.247-1.682,1.247c-1.133,0-1.834-0.802-1.834-1.947c0-1.11,0.744-1.956,1.834-1.956
		c1.223,0,1.814,1.061,1.744,2.199H269.568L269.568,63.232z M271.174,62.587c-0.09-0.516-0.306-0.788-0.785-0.788
		c-0.625,0-0.807,0.501-0.82,0.788H271.174z"/>
	<path d="M274.89,61.814h-0.591v-0.681h0.591v-0.286c0-0.652,0.396-1.124,1.202-1.124c0.174,0,0.354,0.021,0.521,0.028v0.76
		c-0.118-0.015-0.236-0.021-0.361-0.021c-0.264,0-0.375,0.114-0.375,0.422v0.223h0.68v0.68h-0.68v3.021h-0.987V61.814z"/>
	<path d="M278.731,61.033c1.133,0,1.862,0.773,1.862,1.956c0,1.174-0.729,1.947-1.862,1.947c-1.125,0-1.854-0.773-1.854-1.947
		C276.877,61.806,277.606,61.033,278.731,61.033z M278.731,64.169c0.675,0,0.876-0.594,0.876-1.181c0-0.595-0.201-1.189-0.876-1.189
		c-0.667,0-0.868,0.595-0.868,1.189C277.863,63.576,278.064,64.169,278.731,64.169z"/>
	<path d="M281.232,61.133h0.938v0.688h0.015c0.181-0.466,0.666-0.788,1.146-0.788c0.069,0,0.153,0.016,0.215,0.037v0.944
		c-0.09-0.021-0.236-0.036-0.354-0.036c-0.723,0-0.973,0.537-0.973,1.189v1.668h-0.986V61.133z"/>
	<path d="M283.963,61.133h0.93v0.501h0.014c0.258-0.379,0.633-0.602,1.099-0.602c0.452,0,0.854,0.172,1.049,0.616
		c0.208-0.322,0.583-0.616,1.084-0.616c0.765,0,1.313,0.365,1.313,1.326v2.477h-0.986v-2.098c0-0.495-0.042-0.902-0.605-0.902
		c-0.556,0-0.66,0.473-0.66,0.938v2.062h-0.986v-2.076c0-0.43,0.028-0.924-0.597-0.924c-0.194,0-0.667,0.129-0.667,0.852v2.148
		h-0.986V61.133L283.963,61.133z"/>
	<path d="M290.186,62.272c0.057-0.952,0.883-1.239,1.688-1.239c0.716,0,1.577,0.165,1.577,1.053v1.926
		c0,0.338,0.035,0.674,0.125,0.824h-1c-0.035-0.115-0.062-0.236-0.069-0.358c-0.312,0.337-0.771,0.459-1.209,0.459
		c-0.681,0-1.223-0.351-1.223-1.11c0-0.838,0.61-1.038,1.223-1.125c0.604-0.092,1.167-0.07,1.167-0.486c0-0.438-0.291-0.5-0.639-0.5
		c-0.375,0-0.618,0.156-0.654,0.558H290.186L290.186,62.272z M292.465,63.024c-0.166,0.15-0.514,0.157-0.819,0.215
		c-0.306,0.063-0.584,0.171-0.584,0.544c0,0.38,0.285,0.473,0.604,0.473c0.771,0,0.799-0.631,0.799-0.852V63.024z"/>
	<path d="M297.162,60.561h-0.987v-0.838h0.987V60.561z M296.175,61.133h0.987v3.702h-0.987V61.133z"/>
	<path d="M297.939,61.133h0.938v0.516h0.021c0.25-0.415,0.681-0.616,1.098-0.616c1.048,0,1.312,0.609,1.312,1.525v2.277h-0.986
		v-2.09c0-0.609-0.174-0.91-0.633-0.91c-0.535,0-0.764,0.308-0.764,1.06v1.94h-0.986V61.133L297.939,61.133z"/>
	<path d="M304.622,64.363h-0.014c-0.229,0.401-0.633,0.573-1.091,0.573c-1.084,0-1.612-0.96-1.612-1.983
		c0-0.996,0.535-1.92,1.591-1.92c0.424,0,0.841,0.188,1.062,0.552h0.015v-1.861h0.986v5.112h-0.938V64.363L304.622,64.363z
		 M303.76,61.799c-0.645,0-0.868,0.573-0.868,1.182c0,0.58,0.258,1.188,0.868,1.188c0.654,0,0.849-0.588,0.849-1.196
		C304.608,62.373,304.4,61.799,303.76,61.799z"/>
	<path d="M307.116,63.232c0.027,0.645,0.333,0.938,0.881,0.938c0.397,0,0.717-0.251,0.779-0.48h0.868
		c-0.278,0.874-0.868,1.247-1.682,1.247c-1.132,0-1.834-0.802-1.834-1.947c0-1.11,0.744-1.956,1.834-1.956
		c1.224,0,1.814,1.061,1.744,2.199H307.116L307.116,63.232z M308.721,62.587c-0.091-0.516-0.306-0.788-0.785-0.788
		c-0.625,0-0.806,0.501-0.82,0.788H308.721z"/>
	<path d="M310.289,61.133h0.938v0.473h0.014c0.237-0.394,0.626-0.573,1.07-0.573c1.125,0,1.633,0.938,1.633,1.991
		c0,0.987-0.528,1.911-1.577,1.911c-0.431,0-0.841-0.193-1.077-0.559h-0.014v1.762h-0.987V61.133L310.289,61.133z M312.958,62.996
		c0-0.588-0.229-1.196-0.862-1.196c-0.646,0-0.854,0.595-0.854,1.196s0.224,1.174,0.862,1.174
		C312.75,64.169,312.958,63.597,312.958,62.996z"/>
	<path d="M315.348,63.232c0.027,0.645,0.333,0.938,0.883,0.938c0.396,0,0.715-0.251,0.778-0.48h0.868
		c-0.278,0.874-0.868,1.247-1.682,1.247c-1.133,0-1.835-0.802-1.835-1.947c0-1.11,0.744-1.956,1.835-1.956
		c1.223,0,1.812,1.061,1.744,2.199H315.348L315.348,63.232z M316.952,62.587c-0.09-0.516-0.305-0.788-0.785-0.788
		c-0.625,0-0.806,0.501-0.819,0.788H316.952z"/>
	<path d="M318.521,61.133h0.938v0.516h0.021c0.25-0.415,0.682-0.616,1.098-0.616c1.05,0,1.313,0.609,1.313,1.525v2.277h-0.987v-2.09
		c0-0.609-0.173-0.91-0.632-0.91c-0.534,0-0.764,0.308-0.764,1.06v1.94h-0.986L318.521,61.133L318.521,61.133z"/>
	<path d="M325.204,64.363h-0.014c-0.229,0.401-0.632,0.573-1.09,0.573c-1.084,0-1.612-0.96-1.612-1.983
		c0-0.996,0.534-1.92,1.591-1.92c0.424,0,0.841,0.188,1.063,0.552h0.014v-1.861h0.986v5.112h-0.938V64.363L325.204,64.363z
		 M324.344,61.799c-0.646,0-0.868,0.573-0.868,1.182c0,0.58,0.257,1.188,0.868,1.188c0.653,0,0.847-0.588,0.847-1.196
		C325.19,62.373,324.982,61.799,324.344,61.799z"/>
	<path d="M327.9,60.561h-0.986v-0.838h0.986V60.561z M326.914,61.133h0.986v3.702h-0.986V61.133z"/>
	<path d="M329.49,63.232c0.028,0.645,0.334,0.938,0.883,0.938c0.396,0,0.716-0.251,0.778-0.48h0.868
		c-0.277,0.874-0.868,1.247-1.682,1.247c-1.132,0-1.834-0.802-1.834-1.947c0-1.11,0.743-1.956,1.834-1.956
		c1.223,0,1.813,1.061,1.744,2.199H329.49L329.49,63.232z M331.096,62.587c-0.09-0.516-0.306-0.788-0.785-0.788
		c-0.625,0-0.806,0.501-0.82,0.788H331.096z"/>
	<path d="M332.665,61.133h0.938v0.516h0.021c0.25-0.415,0.681-0.616,1.098-0.616c1.05,0,1.313,0.609,1.313,1.525v2.277h-0.986v-2.09
		c0-0.609-0.174-0.91-0.633-0.91c-0.534,0-0.765,0.308-0.765,1.06v1.94h-0.985L332.665,61.133L332.665,61.133z"/>
	<path d="M338.035,61.133h0.723v0.681h-0.723v1.833c0,0.344,0.083,0.43,0.417,0.43c0.104,0,0.202-0.007,0.306-0.028v0.795
		c-0.167,0.028-0.382,0.035-0.577,0.035c-0.604,0-1.133-0.143-1.133-0.881v-2.184h-0.597v-0.681h0.597v-1.11h0.987V61.133z"/>
	<path d="M340.043,63.232c0.027,0.645,0.333,0.938,0.882,0.938c0.396,0,0.716-0.251,0.778-0.48h0.869
		c-0.278,0.874-0.869,1.247-1.682,1.247c-1.133,0-1.834-0.802-1.834-1.947c0-1.11,0.742-1.956,1.834-1.956
		c1.223,0,1.813,1.061,1.743,2.199H340.043L340.043,63.232z M341.647,62.587c-0.09-0.516-0.306-0.788-0.785-0.788
		c-0.626,0-0.806,0.501-0.819,0.788H341.647z"/>
</g>
</svg>
