<?xml version="1.0" encoding="utf-8"?>
<!-- Generator: Adobe Illustrator 16.0.3, SVG Export Plug-In . SVG Version: 6.00 Build 0)  -->
<!DOCTYPE svg PUBLIC "-//W3C//DTD SVG 1.1//EN" "http://www.w3.org/Graphics/SVG/1.1/DTD/svg11.dtd">
<svg version="1.1" id="Layer_1" xmlns="http://www.w3.org/2000/svg" xmlns:xlink="http://www.w3.org/1999/xlink" x="0px" y="0px"
	 width="1126.708px" height="310.91px" viewBox="0 0 1126.708 310.91" enable-background="new 0 0 1126.708 310.91"
	 xml:space="preserve">
<g>
	<g>
		<path fill="#E9280B" d="M29.655,27.324H0V0.203h91.879v27.121H62.236v78.695H29.655V27.324z"/>
		<path fill="#E9280B" d="M96.943,0.203h89.192v27.121h-56.59V40.51h56.59v25.203h-56.59V78.9h56.605v27.12H96.943V0.203z"/>
		<path fill="#E9280B" d="M191.622,0.203h53.5c35.266,0,47.729,26.084,47.729,52.753c0,32.466-17.191,53.063-54.096,53.063h-47.134
			L191.622,0.203L191.622,0.203z M224.222,78.9h12.75c20.309,0,23.278-16.456,23.278-26.396c0-6.656-2.086-25.179-25.652-25.179
			h-10.376V78.9L224.222,78.9z"/>
	</g>
	<g>
		<g>
			<path fill="#E9280B" d="M339.698,65.243l-9.945-16.492l-9.698,16.492h-23.887l22.677-33.346L297.009,0h23.896l8.849,15.767
				L338.855,0h23.888l-21.829,31.896l22.677,33.346L339.698,65.243L339.698,65.243z"/>
		</g>
	</g>
</g>
<g enable-background="new    ">
	<path d="M63.947,207.118c0,8.895-1.317,15.806-3.95,20.73c-4.884,8.99-14.172,13.485-27.865,13.485
		c-7.899,0-14.65-2.141-20.252-6.42c-5.602-4.279-8.402-11.896-8.402-22.847v-7.531h13.414v7.531c0,5.738,1.281,10.055,3.845,12.947
		c2.564,2.895,6.555,4.34,11.97,4.34c7.619,0,12.604-2.605,14.953-7.818c1.437-3.203,2.156-9.254,2.156-18.148v-70.225h14.131
		V207.118z"/>
	<path d="M139.551,169.38c6.79,6.594,10.186,16.292,10.186,29.096c0,12.376-2.993,22.601-8.976,30.675
		c-5.982,8.074-15.266,12.111-27.849,12.111c-10.495,0-18.828-3.57-25.001-10.714c-6.173-7.143-9.259-16.734-9.259-28.774
		c0-12.9,3.253-23.173,9.758-30.817s15.243-11.467,26.212-11.467C124.451,159.489,132.761,162.786,139.551,169.38z M131.535,220.437
		c3.145-6.472,4.717-13.673,4.717-21.602c0-7.164-1.135-12.99-3.405-17.48c-3.593-7.069-9.788-10.604-18.583-10.604
		c-7.803,0-13.477,3.009-17.022,9.027c-3.546,6.019-5.319,13.278-5.319,21.779c0,8.169,1.773,14.974,5.319,20.419
		c3.546,5.444,9.172,8.167,16.881,8.167C122.586,230.144,128.39,226.908,131.535,220.437z"/>
	<path d="M171.938,161.713l20.515,62.549l21.376-62.549h14.131l-28.921,76.823H185.28l-28.334-76.823H171.938z"/>
	<path d="M286.495,163.828c5.084,2.56,8.957,5.871,11.619,9.936c2.566,3.873,4.277,8.392,5.133,13.557
		c0.762,3.539,1.143,9.182,1.143,16.929h-55.879c0.237,7.816,2.064,14.087,5.48,18.811c3.417,4.723,8.707,7.084,15.871,7.084
		c6.69,0,12.028-2.233,16.014-6.701c2.23-2.594,3.811-5.596,4.74-9.008h12.697c-0.336,2.822-1.447,5.966-3.336,9.433
		c-1.891,3.468-3.996,6.301-6.322,8.5c-3.891,3.826-8.708,6.407-14.451,7.747c-3.085,0.765-6.573,1.147-10.465,1.147
		c-9.504,0-17.56-3.479-24.166-10.437s-9.908-16.701-9.908-29.23c0-12.338,3.327-22.355,9.981-30.055
		c6.653-7.699,15.35-11.549,26.092-11.549C276.157,159.991,281.408,161.271,286.495,163.828z M291.118,193.991
		c-0.521-5.595-1.73-10.065-3.627-13.413c-3.51-6.217-9.366-9.325-17.569-9.325c-5.88,0-10.811,2.141-14.794,6.42
		c-3.983,4.28-6.094,9.719-6.331,16.318H291.118z"/>
	<path d="M320.744,161.713h12.266v10.902c3.634-4.494,7.483-7.722,11.549-9.684c4.063-1.96,8.583-2.94,13.557-2.94
		c10.903,0,18.267,3.802,22.094,11.405c2.104,4.16,3.156,10.113,3.156,17.86v49.279h-13.127v-48.418
		c0-4.687-0.694-8.465-2.08-11.334c-2.296-4.781-6.456-7.173-12.481-7.173c-3.061,0-5.571,0.312-7.531,0.933
		c-3.54,1.053-6.647,3.156-9.325,6.312c-2.152,2.535-3.551,5.153-4.196,7.854c-0.646,2.702-0.969,6.563-0.969,11.584v40.241h-12.911
		V161.713z"/>
	<path d="M422.1,222.898c-8.656-9.994-12.983-21.542-12.983-34.646c0-15.589,5.26-28.836,15.78-39.739
		c11.668-12.146,27.33-18.22,46.984-18.22c17.023,0,30.413,4.305,40.169,12.912c9.133,8.13,13.7,18.675,13.7,31.633
		c0,10.903-3.264,20.217-9.791,27.939c-6.527,7.724-13.833,11.585-21.914,11.585c-4.734,0-8.226-1.136-10.473-3.407
		c-2.248-2.271-3.371-5.009-3.371-8.214c0-0.525,0.047-1.076,0.144-1.649c0.096-0.574,0.215-1.171,0.358-1.793
		c-2.535,5.499-5.738,9.385-9.611,11.656c-3.874,2.271-7.867,3.407-11.979,3.407c-5.882,0-10.652-2.128-14.311-6.385
		c-3.658-4.255-5.487-9.73-5.487-16.426c0-9.516,3.12-17.908,9.361-25.178c6.24-7.269,12.947-10.903,20.12-10.903
		c4.878,0,8.906,1.411,12.087,4.232c3.18,2.822,4.865,6.217,5.057,10.186l3.587-12.051h10.544l-9.54,31.418
		c-0.717,2.439-1.244,4.4-1.578,5.882c-0.335,1.483-0.502,2.798-0.502,3.945c0,2.152,0.657,3.719,1.973,4.698
		c1.314,0.981,2.809,1.471,4.483,1.471c5.451,0,10.34-2.845,14.669-8.536c4.327-5.69,6.491-13.126,6.491-22.308
		c0-11.094-3.873-19.81-11.62-26.146c-7.747-6.336-18.173-9.504-31.274-9.504c-18.173,0-32.063,5.308-41.676,15.924
		c-8.226,9.038-12.338,20.396-12.338,34.072c0,11.956,3.921,21.998,11.764,30.127c9.182,9.612,22.261,14.418,39.237,14.418
		c7.938,0,15.325-1.255,22.165-3.766c6.838-2.511,13.102-5.894,18.793-10.15l4.734,6.456c-4.304,3.826-10.736,7.413-19.296,10.76
		c-8.561,3.347-17.98,5.021-28.262,5.021C448.305,241.62,432.906,235.38,422.1,222.898z M479.559,166.482
		c-1.982-2.367-4.717-3.551-8.204-3.551c-5.444,0-10.162,3.217-14.149,9.648c-3.989,6.432-5.983,12.828-5.983,19.188
		c0,4.688,1.027,8.262,3.081,10.724c2.054,2.464,4.634,3.694,7.738,3.694c6.448,0,11.475-3.766,15.081-11.298
		c3.607-7.531,5.41-14.334,5.41-20.407C482.532,171.516,481.541,168.85,479.559,166.482z"/>
	<path d="M627.821,140.839c7.279,7.029,11.32,15.017,12.125,23.958H626.03c-1.551-6.79-4.639-12.17-9.264-16.14
		c-4.627-3.969-11.119-5.953-19.479-5.953c-10.191,0-18.422,3.649-24.691,10.947c-6.27,7.299-9.403,18.486-9.403,33.562
		c0,12.349,2.831,22.363,8.491,30.045s14.104,11.521,25.332,11.521c10.334,0,18.203-4.04,23.605-12.122
		c2.865-4.256,5.002-9.851,6.412-16.785h13.916c-1.23,11.095-5.295,20.396-12.195,27.903c-8.273,9.038-19.43,13.558-33.469,13.558
		c-12.102,0-22.264-3.708-30.488-11.125c-10.825-9.81-16.237-24.955-16.237-45.437c0-15.551,4.063-28.303,12.194-38.257
		c8.791-10.813,20.914-16.222,36.369-16.222C610.311,130.294,620.543,133.81,627.821,140.839z"/>
	<path d="M659.385,133.163H676.2l52.549,85.139v-85.139h13.629v105.373H726.34L673.014,153.5v85.036h-13.629V133.163z"/>
	<path d="M765.116,133.163h45.561c12.418,0,21.25,3.684,26.498,11.047c3.08,4.353,4.621,9.373,4.621,15.063
		c0,6.647-1.889,12.099-5.666,16.354c-1.961,2.249-4.783,4.304-8.465,6.169c5.404,2.057,9.443,4.376,12.123,6.958
		c4.734,4.591,7.102,10.928,7.102,19.009c0,6.791-2.143,12.937-6.424,18.435c-6.4,8.226-16.576,12.338-30.529,12.338h-44.82V133.163
		z M805.342,177.708c6.088,0,10.822-0.836,14.205-2.51c5.316-2.63,7.975-7.364,7.975-14.203c0-6.886-2.828-11.524-8.48-13.916
		c-3.189-1.338-7.926-2.008-14.207-2.008h-25.73v32.637H805.342z M810.167,226.342c8.834,0,15.133-2.534,18.898-7.604
		c2.365-3.203,3.549-7.076,3.549-11.62c0-7.65-3.451-12.863-10.355-15.638c-3.668-1.481-8.52-2.224-14.555-2.224h-28.6v37.085
		H810.167z"/>
	<path d="M894.209,133.163h16.113l38.244,105.373H932.93l-11-31.562h-41.342l-11.428,31.562h-14.633L894.209,133.163z
		 M917.879,195.354l-16.225-46.554l-16.857,46.554H917.879z"/>
</g>
<text transform="matrix(1 0 0 1 2.853 300.8818)" fill="#E9280B" font-family="'HelveticaNeueLTStd-Bd'" font-size="46">x</text>
<g enable-background="new    ">
	<path d="M65.783,286.805H42.55v-4.923h23.233V286.805z M65.783,296.649H42.55v-4.923h23.233V296.649z"/>
	<path d="M88.597,290.577c0.184,4.14,2.208,6.026,5.843,6.026c2.623,0,4.739-1.61,5.153-3.083h5.75
		c-1.84,5.613-5.75,8.006-11.133,8.006c-7.499,0-12.146-5.153-12.146-12.514c0-7.131,4.923-12.56,12.146-12.56
		c8.097,0,12.007,6.809,11.547,14.124H88.597z M99.224,286.437c-0.598-3.312-2.024-5.061-5.199-5.061
		c-4.14,0-5.336,3.22-5.429,5.061H99.224z"/>
	<path d="M122.775,300.882h-7.269l-8.143-23.785h6.855l5.015,16.24h0.092l5.015-16.24h6.487L122.775,300.882z"/>
	<path d="M138.919,290.577c0.184,4.14,2.208,6.026,5.843,6.026c2.623,0,4.739-1.61,5.153-3.083h5.75
		c-1.84,5.613-5.75,8.006-11.133,8.006c-7.499,0-12.146-5.153-12.146-12.514c0-7.131,4.923-12.56,12.146-12.56
		c8.097,0,12.007,6.809,11.547,14.124H138.919z M149.547,286.437c-0.598-3.312-2.024-5.061-5.199-5.061
		c-4.14,0-5.336,3.22-5.429,5.061H149.547z"/>
	<path d="M159.941,277.097h6.21v3.312h0.138c1.656-2.668,4.508-3.956,7.269-3.956c6.947,0,8.695,3.91,8.695,9.799v14.63h-6.533
		v-13.434c0-3.91-1.15-5.843-4.187-5.843c-3.542,0-5.061,1.979-5.061,6.809v12.468h-6.533V277.097z"/>
	<path d="M195.499,277.097h4.785v4.371h-4.785v11.777c0,2.208,0.552,2.76,2.76,2.76c0.69,0,1.334-0.046,2.024-0.184v5.106
		c-1.104,0.185-2.53,0.23-3.818,0.23c-4.002,0-7.499-0.921-7.499-5.659v-14.031h-3.957v-4.371h3.957v-7.131h6.533V277.097z"/>
	<path d="M214.957,276.453c7.499,0,12.329,4.969,12.329,12.56c0,7.545-4.831,12.514-12.329,12.514
		c-7.453,0-12.284-4.969-12.284-12.514C202.673,281.422,207.504,276.453,214.957,276.453z M214.957,296.604
		c4.462,0,5.796-3.818,5.796-7.591c0-3.818-1.334-7.637-5.796-7.637c-4.417,0-5.751,3.818-5.751,7.637
		C209.206,292.785,210.541,296.604,214.957,296.604z"/>
	<path d="M252.262,274.106h-9.845v-6.072h26.913v6.072h-9.845v26.775h-7.223V274.106z"/>
	<path d="M273.099,268.034h24.567v6.072h-17.344v7.039h15.918v5.612h-15.918v8.052h17.712v6.072h-24.935V268.034z"/>
	<path d="M302.907,268.034h14.17c8.511,0,14.905,5.337,14.905,16.24c0,9.522-4.876,16.607-14.905,16.607h-14.17V268.034z
		 M310.129,294.81h6.441c4.186,0,8.188-2.577,8.188-9.846c0-6.625-2.3-10.857-9.478-10.857h-5.152V294.81z"/>
	<path d="M360.637,276.453c7.499,0,12.33,4.969,12.33,12.56c0,7.545-4.831,12.514-12.33,12.514c-7.452,0-12.283-4.969-12.283-12.514
		C348.354,281.422,353.185,276.453,360.637,276.453z M360.637,296.604c4.463,0,5.797-3.818,5.797-7.591
		c0-3.818-1.334-7.637-5.797-7.637c-4.416,0-5.75,3.818-5.75,7.637C354.887,292.785,356.221,296.604,360.637,296.604z"/>
	<path d="M377.196,277.097h6.211v4.417h0.092c1.196-2.99,4.416-5.061,7.591-5.061c0.46,0,1.012,0.092,1.426,0.229v6.073
		c-0.598-0.138-1.563-0.23-2.346-0.23c-4.785,0-6.441,3.451-6.441,7.638v10.719h-6.532V277.097z"/>
	<path d="M417.955,299.363c0,3.911-1.38,10.535-12.329,10.535c-4.692,0-10.167-2.208-10.489-7.637h6.486
		c0.599,2.438,2.577,3.267,4.877,3.267c3.635,0,5.291-2.484,5.244-5.889v-3.128h-0.092c-1.426,2.484-4.278,3.68-7.131,3.68
		c-7.131,0-10.167-5.429-10.167-11.961c0-6.165,3.543-11.777,10.213-11.777c3.129,0,5.521,1.058,7.085,3.818h0.092v-3.175h6.211
		V299.363z M411.744,288.69c0-3.864-1.334-7.314-5.566-7.314c-3.68,0-5.29,3.22-5.29,6.763c0,3.404,1.288,7.131,5.29,7.131
		C409.904,295.27,411.744,292.095,411.744,288.69z"/>
	<path d="M422.919,284.412c0.368-6.119,5.843-7.959,11.18-7.959c4.738,0,10.443,1.058,10.443,6.763v12.375
		c0,2.163,0.229,4.325,0.828,5.291h-6.625c-0.23-0.736-0.414-1.519-0.46-2.3c-2.07,2.162-5.106,2.944-8.005,2.944
		c-4.509,0-8.098-2.255-8.098-7.131c0-5.383,4.049-6.671,8.098-7.224c4.002-0.598,7.729-0.46,7.729-3.128
		c0-2.807-1.932-3.221-4.232-3.221c-2.484,0-4.095,1.013-4.324,3.589H422.919z M438.009,289.242
		c-1.104,0.967-3.404,1.013-5.429,1.381c-2.024,0.414-3.864,1.104-3.864,3.496c0,2.438,1.887,3.036,4.003,3.036
		c5.106,0,5.29-4.048,5.29-5.475V289.242z"/>
	<path d="M449.599,277.097h6.211v3.312h0.138c1.656-2.668,4.509-3.956,7.269-3.956c6.947,0,8.695,3.91,8.695,9.799v14.63h-6.533
		v-13.434c0-3.91-1.149-5.843-4.187-5.843c-3.542,0-5.061,1.979-5.061,6.809v12.468h-6.532V277.097z"/>
	<path d="M483.593,273.417h-6.533v-5.383h6.533V273.417z M477.06,277.097h6.533v23.785h-6.533V277.097z"/>
	<path d="M487.272,295.959l12.376-13.939h-11.455v-4.923h20.058v4.923l-12.375,13.939h13.249v4.923h-21.853V295.959z"/>
	<path d="M512.341,284.412c0.368-6.119,5.843-7.959,11.18-7.959c4.738,0,10.443,1.058,10.443,6.763v12.375
		c0,2.163,0.229,4.325,0.828,5.291h-6.625c-0.23-0.736-0.414-1.519-0.46-2.3c-2.07,2.162-5.106,2.944-8.005,2.944
		c-4.509,0-8.098-2.255-8.098-7.131c0-5.383,4.049-6.671,8.098-7.224c4.002-0.598,7.729-0.46,7.729-3.128
		c0-2.807-1.932-3.221-4.232-3.221c-2.484,0-4.095,1.013-4.324,3.589H512.341z M527.431,289.242
		c-1.104,0.967-3.404,1.013-5.429,1.381c-2.024,0.414-3.864,1.104-3.864,3.496c0,2.438,1.887,3.036,4.003,3.036
		c5.106,0,5.29-4.048,5.29-5.475V289.242z"/>
	<path d="M555.998,297.846h-0.092c-1.519,2.576-4.187,3.681-7.223,3.681c-7.177,0-10.674-6.165-10.674-12.744
		c0-6.395,3.543-12.329,10.536-12.329c2.806,0,5.566,1.196,7.038,3.542h0.092v-11.961h6.533v32.848h-6.211V297.846z
		 M550.293,281.376c-4.278,0-5.751,3.68-5.751,7.591c0,3.727,1.702,7.637,5.751,7.637c4.324,0,5.612-3.772,5.612-7.683
		C555.906,285.056,554.526,281.376,550.293,281.376z"/>
	<path d="M578.674,276.453c7.499,0,12.33,4.969,12.33,12.56c0,7.545-4.831,12.514-12.33,12.514c-7.452,0-12.283-4.969-12.283-12.514
		C566.391,281.422,571.222,276.453,578.674,276.453z M578.674,296.604c4.463,0,5.797-3.818,5.797-7.591
		c0-3.818-1.334-7.637-5.797-7.637c-4.416,0-5.75,3.818-5.75,7.637C572.924,292.785,574.258,296.604,578.674,296.604z"/>
	<path d="M624.997,297.846h-0.092c-1.519,2.576-4.187,3.681-7.223,3.681c-7.177,0-10.673-6.165-10.673-12.744
		c0-6.395,3.542-12.329,10.535-12.329c2.806,0,5.566,1.196,7.038,3.542h0.093v-11.961h6.532v32.848h-6.211V297.846z
		 M619.292,281.376c-4.278,0-5.751,3.68-5.751,7.591c0,3.727,1.702,7.637,5.751,7.637c4.324,0,5.612-3.772,5.612-7.683
		C624.905,285.056,623.525,281.376,619.292,281.376z"/>
	<path d="M641.509,290.577c0.184,4.14,2.208,6.026,5.843,6.026c2.622,0,4.738-1.61,5.152-3.083h5.751
		c-1.841,5.613-5.751,8.006-11.134,8.006c-7.499,0-12.146-5.153-12.146-12.514c0-7.131,4.923-12.56,12.146-12.56
		c8.097,0,12.008,6.809,11.548,14.124H641.509z M652.136,286.437c-0.598-3.312-2.024-5.061-5.198-5.061
		c-4.141,0-5.337,3.22-5.429,5.061H652.136z"/>
	<path d="M676.744,281.468h-3.91v-4.371h3.91v-1.84c0-4.187,2.623-7.223,7.959-7.223c1.15,0,2.347,0.138,3.45,0.184v4.877
		c-0.781-0.092-1.563-0.138-2.392-0.138c-1.748,0-2.484,0.735-2.484,2.714v1.426h4.509v4.371h-4.509v19.414h-6.533V281.468z"/>
	<path d="M702.183,276.453c7.499,0,12.33,4.969,12.33,12.56c0,7.545-4.831,12.514-12.33,12.514c-7.452,0-12.283-4.969-12.283-12.514
		C689.9,281.422,694.731,276.453,702.183,276.453z M702.183,296.604c4.463,0,5.797-3.818,5.797-7.591
		c0-3.818-1.334-7.637-5.797-7.637c-4.416,0-5.75,3.818-5.75,7.637C696.433,292.785,697.767,296.604,702.183,296.604z"/>
	<path d="M718.742,277.097h6.211v4.417h0.092c1.196-2.99,4.416-5.061,7.591-5.061c0.46,0,1.012,0.092,1.426,0.229v6.073
		c-0.598-0.138-1.563-0.23-2.346-0.23c-4.785,0-6.441,3.451-6.441,7.638v10.719h-6.532V277.097z"/>
	<path d="M736.819,277.097h6.165v3.221h0.092c1.702-2.438,4.187-3.864,7.27-3.864c2.99,0,5.658,1.104,6.946,3.956
		c1.38-2.07,3.864-3.956,7.177-3.956c5.061,0,8.695,2.347,8.695,8.511v15.918h-6.533v-13.479c0-3.175-0.275-5.797-4.002-5.797
		c-3.681,0-4.371,3.036-4.371,6.026v13.25h-6.532V287.54c0-2.76,0.184-5.935-3.957-5.935c-1.288,0-4.416,0.828-4.416,5.475v13.802
		h-6.533V277.097z"/>
	<path d="M778.034,284.412c0.368-6.119,5.843-7.959,11.18-7.959c4.738,0,10.443,1.058,10.443,6.763v12.375
		c0,2.163,0.229,4.325,0.828,5.291h-6.625c-0.23-0.736-0.414-1.519-0.46-2.3c-2.07,2.162-5.106,2.944-8.005,2.944
		c-4.509,0-8.097-2.255-8.097-7.131c0-5.383,4.048-6.671,8.097-7.224c4.002-0.598,7.729-0.46,7.729-3.128
		c0-2.807-1.932-3.221-4.232-3.221c-2.484,0-4.095,1.013-4.324,3.589H778.034z M793.124,289.242
		c-1.104,0.967-3.404,1.013-5.429,1.381c-2.024,0.414-3.864,1.104-3.864,3.496c0,2.438,1.887,3.036,4.003,3.036
		c5.106,0,5.29-4.048,5.29-5.475V289.242z"/>
	<path d="M824.219,273.417h-6.533v-5.383h6.533V273.417z M817.686,277.097h6.533v23.785h-6.533V277.097z"/>
	<path d="M829.37,277.097h6.211v3.312h0.138c1.656-2.668,4.509-3.956,7.269-3.956c6.947,0,8.695,3.91,8.695,9.799v14.63h-6.533
		v-13.434c0-3.91-1.149-5.843-4.187-5.843c-3.542,0-5.061,1.979-5.061,6.809v12.468h-6.532V277.097z"/>
	<path d="M873.623,297.846h-0.092c-1.519,2.576-4.187,3.681-7.223,3.681c-7.177,0-10.674-6.165-10.674-12.744
		c0-6.395,3.543-12.329,10.536-12.329c2.806,0,5.566,1.196,7.038,3.542h0.092v-11.961h6.533v32.848h-6.211V297.846z
		 M867.918,281.376c-4.278,0-5.751,3.68-5.751,7.591c0,3.727,1.702,7.637,5.751,7.637c4.324,0,5.612-3.772,5.612-7.683
		C873.531,285.056,872.151,281.376,867.918,281.376z"/>
	<path d="M890.136,290.577c0.184,4.14,2.208,6.026,5.843,6.026c2.622,0,4.738-1.61,5.152-3.083h5.751
		c-1.841,5.613-5.751,8.006-11.134,8.006c-7.499,0-12.146-5.153-12.146-12.514c0-7.131,4.923-12.56,12.146-12.56
		c8.097,0,12.008,6.809,11.548,14.124H890.136z M900.763,286.437c-0.598-3.312-2.024-5.061-5.198-5.061
		c-4.141,0-5.337,3.22-5.429,5.061H900.763z"/>
	<path d="M911.157,277.097h6.211v3.037h0.092c1.564-2.53,4.141-3.681,7.085-3.681c7.452,0,10.811,6.026,10.811,12.789
		c0,6.349-3.496,12.284-10.442,12.284c-2.853,0-5.567-1.242-7.131-3.589h-0.093v11.317h-6.532V277.097z M928.823,289.059
		c0-3.772-1.519-7.683-5.705-7.683c-4.278,0-5.658,3.818-5.658,7.683s1.472,7.545,5.704,7.545
		C927.443,296.604,928.823,292.923,928.823,289.059z"/>
	<path d="M944.645,290.577c0.184,4.14,2.208,6.026,5.843,6.026c2.622,0,4.738-1.61,5.152-3.083h5.751
		c-1.841,5.613-5.751,8.006-11.134,8.006c-7.499,0-12.146-5.153-12.146-12.514c0-7.131,4.923-12.56,12.146-12.56
		c8.097,0,12.008,6.809,11.547,14.124H944.645z M955.272,286.437c-0.598-3.312-2.024-5.061-5.198-5.061
		c-4.141,0-5.337,3.22-5.429,5.061H955.272z"/>
	<path d="M965.666,277.097h6.211v3.312h0.138c1.656-2.668,4.509-3.956,7.269-3.956c6.947,0,8.695,3.91,8.695,9.799v14.63h-6.533
		v-13.434c0-3.91-1.149-5.843-4.187-5.843c-3.542,0-5.061,1.979-5.061,6.809v12.468h-6.532V277.097z"/>
	<path d="M1009.918,297.846h-0.092c-1.519,2.576-4.187,3.681-7.223,3.681c-7.177,0-10.673-6.165-10.673-12.744
		c0-6.395,3.542-12.329,10.535-12.329c2.806,0,5.566,1.196,7.038,3.542h0.093v-11.961h6.532v32.848h-6.211V297.846z
		 M1004.214,281.376c-4.278,0-5.751,3.68-5.751,7.591c0,3.727,1.702,7.637,5.751,7.637c4.324,0,5.612-3.772,5.612-7.683
		C1009.827,285.056,1008.447,281.376,1004.214,281.376z"/>
	<path d="M1027.765,273.417h-6.533v-5.383h6.533V273.417z M1021.232,277.097h6.533v23.785h-6.533V277.097z"/>
	<path d="M1038.299,290.577c0.184,4.14,2.208,6.026,5.843,6.026c2.622,0,4.738-1.61,5.152-3.083h5.751
		c-1.841,5.613-5.751,8.006-11.134,8.006c-7.499,0-12.146-5.153-12.146-12.514c0-7.131,4.923-12.56,12.146-12.56
		c8.097,0,12.008,6.809,11.547,14.124H1038.299z M1048.926,286.437c-0.598-3.312-2.024-5.061-5.198-5.061
		c-4.141,0-5.337,3.22-5.429,5.061H1048.926z"/>
	<path d="M1059.32,277.097h6.211v3.312h0.138c1.656-2.668,4.509-3.956,7.269-3.956c6.947,0,8.695,3.91,8.695,9.799v14.63h-6.533
		v-13.434c0-3.91-1.149-5.843-4.187-5.843c-3.542,0-5.061,1.979-5.061,6.809v12.468h-6.532V277.097z"/>
	<path d="M1094.878,277.097h4.784v4.371h-4.784v11.777c0,2.208,0.552,2.76,2.76,2.76c0.69,0,1.334-0.046,2.024-0.184v5.106
		c-1.104,0.185-2.53,0.23-3.818,0.23c-4.003,0-7.499-0.921-7.499-5.659v-14.031h-3.956v-4.371h3.956v-7.131h6.533V277.097z"/>
	<path d="M1108.171,290.577c0.184,4.14,2.208,6.026,5.843,6.026c2.622,0,4.738-1.61,5.152-3.083h5.751
		c-1.841,5.613-5.751,8.006-11.134,8.006c-7.499,0-12.146-5.153-12.146-12.514c0-7.131,4.923-12.56,12.146-12.56
		c8.097,0,12.008,6.809,11.548,14.124H1108.171z M1118.798,286.437c-0.598-3.312-2.024-5.061-5.198-5.061
		c-4.141,0-5.337,3.22-5.429,5.061H1118.798z"/>
</g>
</svg>
